<?xml version="1.0" standalone="no"?>
<!DOCTYPE svg PUBLIC "-//W3C//DTD SVG 20010904//EN"
 "http://www.w3.org/TR/2001/REC-SVG-20010904/DTD/svg10.dtd">
<svg version="1.0" xmlns="http://www.w3.org/2000/svg"
 width="375.000000pt" height="375.000000pt" viewBox="0 0 375.000000 375.000000"
 preserveAspectRatio="xMidYMid meet">
<metadata>
Created by potrace 1.14, written by Peter Selinger 2001-2017
</metadata>
<g transform="translate(0.000000,375.000000) scale(0.100000,-0.100000)"
fill="#000000" stroke="none">
<path d="M1082 3698 c-35 -4 -80 -13 -100 -19 -20 -7 -44 -14 -52 -15 -8 -2
-23 -7 -35 -12 -11 -6 -55 -26 -97 -45 -156 -72 -376 -250 -431 -350 -38 -69
-5 -171 65 -203 56 -25 97 -8 188 78 275 260 559 347 795 243 96 -42 169 -138
169 -224 0 -36 -8 -59 -38 -106 -37 -59 -160 -186 -245 -255 -46 -38 -66 -54
-103 -85 -12 -11 -57 -46 -98 -79 -41 -33 -77 -62 -80 -66 -3 -3 -25 -21 -50
-40 -25 -19 -55 -44 -66 -55 -12 -11 -39 -35 -61 -52 -68 -55 -228 -215 -279
-278 -87 -109 -223 -332 -229 -375 0 -3 -3 -9 -6 -15 -12 -20 -49 -141 -59
-195 -28 -141 -33 -407 -11 -540 59 -355 222 -631 471 -796 96 -64 219 -121
299 -139 9 -2 50 -12 91 -21 67 -16 150 -18 785 -18 663 -1 713 0 738 17 43
28 61 64 61 124 0 48 -3 57 -35 89 -43 42 -52 44 -271 46 -87 1 -158 2 -158 3
0 1 35 37 78 81 123 126 206 261 238 389 17 68 20 106 18 195 -4 244 -107 412
-315 518 -63 32 -157 48 -286 47 -109 -1 -141 -6 -216 -29 -49 -15 -107 -38
-130 -52 -23 -14 -50 -27 -59 -31 -10 -3 -18 -9 -18 -14 0 -5 -4 -9 -10 -9
-25 0 -200 -175 -200 -200 0 -6 -4 -10 -8 -10 -12 0 -70 -121 -76 -158 -2 -18
0 -47 5 -66 10 -35 61 -95 82 -97 6 0 22 -2 35 -5 47 -8 105 36 139 106 28 59
151 173 223 208 186 90 393 78 497 -30 103 -106 102 -295 -1 -451 -71 -106
-236 -250 -411 -357 l-95 -57 -237 2 c-335 4 -387 12 -540 87 -124 60 -265
204 -333 337 -26 53 -66 167 -76 220 -3 14 -7 27 -9 30 -16 26 -24 304 -11
402 20 164 87 324 199 479 64 89 259 274 448 427 97 78 183 148 190 155 8 7
41 35 74 63 197 164 334 342 369 480 4 17 10 39 13 50 11 44 9 184 -4 240 -8
33 -27 87 -43 120 -30 61 -109 163 -139 179 -9 5 -20 14 -26 20 -19 22 -153
86 -211 101 -68 17 -220 23 -312 13z"/>
<path d="M2412 3680 c-57 -35 -73 -88 -70 -233 2 -98 -1 -127 -12 -139 -8 -8
-38 -41 -67 -74 -28 -32 -62 -71 -75 -85 -12 -14 -50 -56 -83 -93 -97 -110
-104 -118 -178 -194 -39 -40 -87 -85 -106 -100 -20 -15 -56 -46 -81 -69 l-45
-42 0 -71 c0 -69 1 -73 36 -105 31 -28 43 -32 80 -31 114 5 275 146 556 488
l80 97 24 -26 c29 -31 79 -54 107 -48 77 14 126 94 112 178 l-7 37 36 -6 c82
-16 182 -78 247 -154 12 -14 32 -36 44 -50 70 -79 230 -358 230 -401 0 -10 5
-21 10 -24 18 -11 11 -21 -32 -42 -121 -60 -257 -50 -383 26 -34 21 -130 94
-145 111 -15 17 -68 48 -85 50 -45 5 -66 -1 -98 -30 -44 -38 -62 -95 -47 -151
14 -50 102 -142 197 -206 58 -39 181 -102 213 -108 8 -2 35 -8 58 -15 61 -16
204 -10 275 11 134 40 289 144 326 217 36 72 14 153 -117 421 -98 201 -256
407 -403 527 -24 20 -27 29 -28 95 -2 164 -38 219 -141 219 -78 0 -118 -49
-126 -151 -2 -34 -6 -64 -8 -68 -3 -3 -26 -6 -52 -6 -54 0 -49 -12 -57 129 -4
59 -8 72 -34 98 -41 40 -104 48 -151 18z"/>
<path d="M2091 2204 c-91 -38 -111 -129 -56 -259 74 -175 149 -283 255 -367
86 -68 131 -83 255 -83 94 0 123 4 200 29 50 16 92 32 95 35 3 3 19 13 35 21
33 17 68 40 134 88 27 19 48 29 55 24 6 -5 30 -23 52 -41 53 -41 110 -51 152
-26 56 34 76 116 44 187 -19 43 -114 168 -166 219 -56 56 -111 42 -210 -52
-118 -112 -175 -148 -289 -183 -66 -21 -155 -16 -194 10 -53 34 -97 96 -165
229 -39 76 -76 145 -83 151 -23 24 -80 32 -114 18z"/>
</g>
</svg>
